<svg width="14" height="14" viewBox="0 0 14 14" fill="none" xmlns="http://www.w3.org/2000/svg">
<path d="M2.80371 12.1919C1.68115 12.1919 1.11719 11.6387 1.11719 10.5269V3.97949C1.11719 2.8999 1.65967 2.36279 2.59961 2.36279H4.13037C4.66211 2.36279 4.93604 2.45947 5.29053 2.76025L5.61816 3.02881C5.88672 3.25977 6.10693 3.3457 6.47217 3.3457H11.6284C12.7456 3.3457 13.3149 3.9043 13.3149 5.01074V10.5269C13.3149 11.6333 12.751 12.1919 11.7896 12.1919H2.80371ZM1.98193 4.02783V5.36523H12.4502V5.05908C12.4502 4.50049 12.144 4.21045 11.6123 4.21045H6.24658C5.71484 4.21045 5.43018 4.1084 5.08105 3.81836L4.75342 3.54443C4.47949 3.31348 4.26465 3.22217 3.91016 3.22217H2.77686C2.26123 3.22217 1.98193 3.49609 1.98193 4.02783ZM2.81445 11.3271H11.6123C12.144 11.3271 12.4502 11.0425 12.4502 10.4893V6.17627H1.98193V10.4839C1.98193 11.0425 2.27734 11.3271 2.81445 11.3271Z" fill="#007AFF"/>
</svg>
